<?xml version="1.0" encoding="UTF-8"?>
<!-- Generator: visioncortex VTracer 0.6.5 -->
<svg version="1.1" xmlns="http://www.w3.org/2000/svg" width="3374" height="600">
<path d="M0 0 C1113.42 0 2226.84 0 3374 0 C3374 198 3374 396 3374 600 C2260.58 600 1147.16 600 0 600 C0 402 0 204 0 0 Z M3339.72 52.49 C3337.34 54.58 3334.91 56.63 3332.48 58.68 C3330.68 60.29 3329.25 61.93 3328 64 C3328 64.66 3328 65.32 3328 66 C3327.01 66.33 3326.02 66.66 3325 67 C3323.63 68.5 3323.63 68.5 3322.12 70.44 C3315.22 78.57 3306.04 84.75 3296.73 89.84 C3296.16 90.23 3295.59 90.61 3295 91 C3295 91.66 3295 92.32 3295 93 C3294.32 93.19 3293.64 93.37 3292.94 93.56 C3288.86 95.56 3285.87 98.5 3283 102 C3283 102.66 3283 103.32 3283 104 C3282.36 104.27 3281.72 104.54 3281.06 104.81 C3279 106 3279 106 3278 109 C3276.36 109.73 3274.69 110.39 3273 111 C3271.32 111.98 3269.66 112.98 3268 114 C3258 120 3258 120 3255.34 121.56 C3241.95 129.82 3233.46 149.73 3228.31 164.06 C3224.21 175.36 3216.37 184.93 3206 191 C3204.37 192.18 3202.74 193.37 3201.12 194.56 C3195.06 198.83 3189.34 200.25 3182 201 C3181.28 201.08 3180.57 201.15 3179.83 201.23 C3170.88 201.76 3162.62 198.38 3154.77 194.33 C3152 193 3152 193 3149 193 C3149 192.34 3149 191.68 3149 191 C3146.03 190.01 3143.06 189.02 3140 188 C3140 187.34 3140 186.68 3140 186 C3135.42 182.71 3129.69 180 3124 180 C3124 179.34 3124 178.68 3124 178 C3123.36 177.94 3122.72 177.88 3122.07 177.82 C3121.24 177.73 3120.41 177.65 3119.56 177.56 C3119.15 177.52 3119.15 177.52 3117.07 177.32 C3115 177 3115 177 3114 176 C3112.7 175.77 3111.4 175.55 3110.06 175.31 C3099.75 173.06 3093.08 166.39 3086 159 C3079 152.3 3071.47 148.65 3062 147 C3062 146.34 3062 145.68 3062 145 C3043.87 135 3043.87 135 3041 135 C3041 134.34 3041 133.68 3041 133 C3032.03 130.19 3022.8 129.19 3014.19 133.5 C3012.78 134.31 3011.37 135.13 3010 136 C3010 136.66 3010 137.32 3010 138 C3009.44 138.06 3008.89 138.12 3008.31 138.19 C3005.02 139.34 3003.4 141.48 3001 144 C2999.32 145.49 2997.61 146.94 2995.89 148.38 C2994.57 149.51 2993.28 150.68 2992.02 151.87 C2987.79 155.81 2984.71 157.93 2979 159 C2979 159.66 2979 160.32 2979 161 C2978.58 161.01 2978.58 161.01 2976.48 161.08 C2973.36 161.17 2970.23 161.27 2967.1 161.37 C2965.1 161.44 2963.1 161.5 2961.1 161.56 C2954.35 161.78 2947.7 162.12 2941 163 C2941 163.66 2941 164.32 2941 165 C2940.34 165.08 2939.68 165.16 2939 165.25 C2930.19 167.45 2921.46 173.11 2916.21 180.53 C2914.76 183 2913.38 185.5 2912 188 C2906.72 196.19 2898 199.38 2889 202 C2889 202.66 2889 203.32 2889 204 C2886.69 204.33 2884.38 204.66 2882 205 C2882 205.66 2882 206.32 2882 207 C2881.28 207.1 2880.55 207.2 2879.81 207.3 C2872.82 209.05 2866.25 215.16 2861 220 C2861 220.66 2861 221.32 2861 222 C2860.01 222 2859.02 222 2858 222 C2858 222.66 2858 223.32 2858 224 C2857.18 224.33 2857.18 224.33 2853 226 C2853 226.66 2853 227.32 2853 228 C2852.13 228.28 2851.25 228.57 2850.35 228.86 C2847.3 229.9 2844.34 231.04 2841.37 232.28 C2840.31 232.71 2839.26 233.14 2838.17 233.58 C2836 234.48 2833.82 235.38 2831.65 236.28 C2818.75 241.53 2807.57 243.42 2793.75 243.06 C2771.76 242.56 2771.76 242.56 2764.68 249.18 C2761.6 252.51 2759.06 256.19 2756.5 259.94 C2751.48 267.25 2746.37 274.68 2738.31 278.88 C2737.59 279.26 2736.86 279.65 2736.11 280.05 C2731.6 282.07 2727.2 282.22 2722.31 282.44 C2716.34 282.75 2710.8 283.45 2705 285 C2705 285.66 2705 286.32 2705 287 C2704.3 287.06 2703.6 287.12 2702.88 287.19 C2699.06 288.27 2696.96 290.41 2694 293 C2693.53 293.28 2693.53 293.28 2691.12 294.69 C2690.77 294.9 2690.77 294.9 2689 296 C2689 296.66 2689 297.32 2689 298 C2688.47 298.2 2687.94 298.4 2687.4 298.61 C2683.94 300.61 2681.41 303.34 2678.62 306.19 C2678.04 306.77 2677.46 307.36 2676.86 307.96 C2673.95 310.92 2671.17 313.9 2668.56 317.12 C2665.9 320.11 2663.68 321.51 2660 323 C2660 323.66 2660 324.32 2660 325 C2659.27 325.1 2658.53 325.19 2657.77 325.29 C2654.63 326.1 2653.09 327.23 2650.62 329.31 C2644.32 334.6 2639.49 337.7 2631.12 337.44 C2630.4 337.43 2629.67 337.42 2628.93 337.41 C2621.97 337.2 2615.23 336.04 2608.41 334.66 C2605 334 2605 334 2602 334 C2602 333.34 2602 332.68 2602 332 C2598.32 330.77 2594.87 330.79 2591.04 330.72 C2590.65 330.71 2590.65 330.71 2588.68 330.66 C2586.18 330.6 2583.68 330.55 2581.19 330.5 C2577.91 330.43 2574.63 330.36 2571.36 330.28 C2570.98 330.27 2570.98 330.27 2569.09 330.24 C2564.97 330.14 2561.06 329.73 2557 329 C2555.55 328.91 2554.09 328.85 2552.64 328.82 C2537.88 328.43 2524.4 326.58 2511 320 C2510.34 320 2509.68 320 2509 320 C2509 319.34 2509 318.68 2509 318 C2508.18 317.64 2507.35 317.28 2506.5 316.91 C2502.19 314.56 2498.68 311.65 2494.94 308.5 C2483.59 299 2483.59 299 2480 299 C2480 298.34 2480 297.68 2480 297 C2474.97 294.65 2470.34 293.28 2464.88 292.38 C2463.5 292.13 2462.12 291.89 2460.74 291.65 C2459.51 291.43 2458.27 291.22 2457 291 C2456.2 290.83 2455.4 290.65 2454.58 290.47 C2450.14 289.66 2445.69 289.73 2441.19 289.69 C2440.23 289.66 2439.27 289.63 2438.28 289.6 C2429.49 289.52 2423.75 291.93 2417.31 297.94 C2416.93 298.29 2416.93 298.29 2415.02 300.05 C2413.46 301.56 2411.94 303.11 2410.44 304.69 C2407.7 307.28 2404.84 309.03 2401.57 310.89 C2401.05 311.25 2400.54 311.62 2400 312 C2400 312.66 2400 313.32 2400 314 C2399.27 314.12 2398.53 314.23 2397.77 314.35 C2394.98 315.01 2393.08 315.91 2390.62 317.38 C2386.83 319.57 2383.06 321.36 2379 323 C2379 323.66 2379 324.32 2379 325 C2378.66 325.02 2378.66 325.02 2376.94 325.12 C2373.35 326.19 2371.51 327.95 2368.78 330.44 C2367.11 331.9 2365.44 333.08 2363.56 334.25 C2362.72 334.83 2361.87 335.4 2361 336 C2361 336.66 2361 337.32 2361 338 C2360.48 338.23 2359.96 338.45 2359.42 338.69 C2356.12 340.48 2353.22 342.72 2350.25 345 C2349.65 345.45 2349.05 345.9 2348.43 346.37 C2346.91 347.53 2345.45 348.76 2344 350 C2344 350.66 2344 351.32 2344 352 C2343.34 352 2342.68 352 2342 352 C2342 352.66 2342 353.32 2342 354 C2341.26 354.27 2340.51 354.54 2339.75 354.81 C2337 356 2337 356 2335.19 357.44 C2332.61 359.28 2330.1 360.21 2327.12 361.24 C2325 362 2325 362 2323.16 362.86 C2315.62 366.25 2306.95 365.83 2299 364 C2299 363.34 2299 362.68 2299 362 C2298.54 361.84 2298.54 361.84 2296.19 361 C2289.54 358.17 2283.8 353.33 2278.29 348.75 C2276 347 2276 347 2274 347 C2274 346.34 2274 345.68 2274 345 C2271.52 343.31 2271.52 343.31 2268.25 341.44 C2267.72 341.13 2267.72 341.13 2265.02 339.56 C2259.62 336.77 2254.78 336.79 2248.81 336.75 C2248.41 336.74 2248.41 336.74 2246.35 336.69 C2237.97 336.63 2231.32 338.67 2224.66 343.74 C2219.06 347.99 2213.23 350.07 2206.57 352.17 C2204 353 2204 353 2202 354 C2202 354.66 2202 355.32 2202 356 C2200.68 356 2199.36 356 2198 356 C2198 356.66 2198 357.32 2198 358 C2197.69 358.1 2197.69 358.1 2196.1 358.62 C2195.28 358.89 2194.47 359.16 2193.62 359.44 C2193.22 359.57 2193.22 359.57 2191.16 360.25 C2189 361 2189 361 2187 362 C2187 362.66 2187 363.32 2187 364 C2186.28 364.12 2185.56 364.25 2184.81 364.38 C2182.04 364.99 2179.6 365.88 2177 367 C2177 367.66 2177 368.32 2177 369 C2176.34 369.08 2175.69 369.17 2175.01 369.25 C2164.22 371.94 2152.04 379.39 2145 388 C2145 388.99 2145 389.98 2145 391 C2144.34 391 2143.68 391 2143 391 C2142.59 391.74 2142.18 392.49 2141.75 393.25 C2139.21 397.23 2136.43 399.34 2131.82 400.59 C2123.55 402.17 2115.32 402.45 2106.94 402.62 C2105.44 402.66 2103.94 402.7 2102.45 402.74 C2092.99 402.97 2083.52 403.1 2074.06 403.12 C2072.98 403.13 2071.9 403.13 2070.78 403.14 C2070.29 403.14 2070.29 403.14 2067.79 403.13 C2066.93 403.13 2066.07 403.13 2065.19 403.13 C2063 403 2063 403 2060 402 C2051.22 401.2 2043.73 402.54 2035.41 405.03 C2022.54 408.7 2008.46 408.06 1995.19 408.18 C1993.96 408.19 1992.73 408.2 1991.46 408.21 C1986.34 408.26 1981.22 408.31 1976.1 408.33 C1972.32 408.34 1968.53 408.38 1964.75 408.43 C1963.6 408.42 1962.46 408.42 1961.27 408.42 C1955.08 408.51 1950.4 409.16 1944.9 412.1 C1941.76 413.58 1938.79 413.45 1935.38 413.38 C1934.76 413.37 1934.76 413.37 1931.65 413.34 C1927.88 412.99 1924.61 412.07 1921 411 C1919.68 411 1918.36 411 1917 411 C1917 410.34 1917 409.68 1917 409 C1914.02 407.48 1911.18 406.06 1908 405 C1908 404.34 1908 403.68 1908 403 C1906.68 402.67 1905.36 402.34 1904 402 C1904 401.34 1904 400.68 1904 400 C1901.92 398.52 1899.87 397.19 1897.69 395.88 C1897.09 395.5 1896.5 395.13 1895.88 394.75 C1891.38 392 1891.38 392 1888 392 C1888 391.34 1888 390.68 1888 390 C1877.87 384.93 1861.56 387.69 1850.69 389.38 C1849.87 389.5 1849.05 389.63 1848.21 389.76 C1844.56 390.37 1842.12 390.92 1839 393 C1839 393.66 1839 394.32 1839 395 C1838.01 395 1837.02 395 1836 395 C1834.56 396.28 1834.56 396.28 1833 398 C1830.99 399.78 1828.97 401.53 1826.94 403.28 C1825 405 1825 405 1823.61 406.58 C1821.39 408.54 1819.1 409.24 1816.31 410.19 C1815.32 410.53 1814.32 410.88 1813.3 411.23 C1812.54 411.48 1811.78 411.74 1811 412 C1811 412.66 1811 413.32 1811 414 C1810.2 414.08 1809.39 414.17 1808.56 414.25 C1805.61 414.87 1803.51 415.57 1800.81 416.81 C1800.04 417.16 1799.27 417.51 1798.48 417.87 C1796.78 418.64 1795.09 419.43 1793.4 420.22 C1786.32 423.23 1780.28 423.92 1773 421 C1770.85 419.22 1769.31 417.4 1767.65 415.16 C1765.39 412.2 1762.68 409.99 1759.86 407.61 C1758.21 406.18 1756.69 404.7 1755.19 403.12 C1753 401 1753 401 1750 400 C1749.67 399.01 1749.34 398.02 1749 397 C1747.35 396.67 1745.7 396.34 1744 396 C1744 395.34 1744 394.68 1744 394 C1741.36 393.34 1738.72 392.68 1736 392 C1736 391.34 1736 390.68 1736 390 C1716.85 384.25 1697.68 379.16 1677.71 377.36 C1674.44 377.04 1671.24 376.59 1668 376 C1668 375.34 1668 374.68 1668 374 C1664.69 373.04 1661.38 372.08 1658.06 371.12 C1657.14 370.86 1656.21 370.59 1655.26 370.31 C1636.17 364.82 1618.05 362.33 1599 369 C1599 369.66 1599 370.32 1599 371 C1598.34 371.06 1597.68 371.12 1597 371.19 C1593.44 372.15 1590.91 373.81 1587.87 375.84 C1582.07 379.43 1573.6 378.9 1567 378 C1553.99 373.36 1546.7 359.76 1541.01 347.95 C1539.23 344.01 1537.58 340.02 1536 336 C1535.34 336 1534.68 336 1534 336 C1533.86 335.22 1533.71 334.43 1533.56 333.62 C1533 331 1533 331 1532 329 C1531.34 329 1530.68 329 1530 329 C1529.77 328.28 1529.55 327.56 1529.31 326.81 C1527.73 323.42 1525.77 321.5 1523 319 C1522.34 318.4 1521.68 317.8 1521 317.19 C1518.52 315.72 1516.84 315.76 1514 316 C1514 315.34 1514 314.68 1514 314 C1502.65 311.22 1490.09 312.82 1478.69 314.5 C1466.47 316.28 1454.13 316.93 1441.82 315.67 C1432.26 314.72 1423.81 315.77 1414.44 317.44 C1384.57 322.65 1384.57 322.65 1371.94 315.9 C1370 315 1370 315 1366 315 C1366 314.34 1366 313.68 1366 313 C1365.34 312.79 1364.68 312.59 1364 312.38 C1360.63 310.83 1358.01 308.89 1355.1 306.61 C1353 305 1353 305 1351.06 303.73 C1345.78 300.2 1342.29 295.83 1338.59 290.76 C1334.7 285.42 1330.34 280.9 1325 277 C1324.34 277 1323.68 277 1323 277 C1323 276.34 1323 275.68 1323 275 C1320.88 273.49 1320.88 273.49 1318.12 271.88 C1317.22 271.34 1316.32 270.8 1315.38 270.24 C1313 269 1313 269 1311 269 C1311 268.34 1311 267.68 1311 267 C1309.89 266.57 1308.77 266.13 1307.62 265.69 C1304 264 1304 264 1302 261 C1300.28 260.03 1298.55 259.05 1296.81 258.12 C1294.15 256.48 1292.17 254.23 1290 252 C1289.34 252 1288.68 252 1288 252 C1288 251.34 1288 250.68 1288 250 C1287.34 250 1286.68 250 1286 250 C1285.74 249.41 1285.49 248.83 1285.23 248.23 C1283.88 245.78 1282.41 244.28 1280.38 242.38 C1274.57 236.68 1269.69 230.44 1265.03 223.78 C1245.91 196.53 1245.91 196.53 1231 193 C1227.33 192.57 1223.73 192.32 1220.03 192.24 C1217.01 192 1215.61 191.41 1213 190 C1211.18 189.59 1209.34 189.24 1207.5 188.94 C1202.2 188.06 1202.2 188.06 1200.19 187.48 C1197.55 186.9 1195.08 186.84 1192.38 186.79 C1191.29 186.76 1190.19 186.74 1189.07 186.71 C1187.91 186.68 1186.75 186.65 1185.56 186.62 C1171.47 186.21 1171.47 186.21 1165.25 184.44 C1151.85 180.78 1137.67 181.43 1125.29 187.69 C1124.53 188.12 1123.78 188.55 1123 189 C1123 189.66 1123 190.32 1123 191 C1122.55 191.14 1122.55 191.14 1120.25 191.88 C1117.68 192.77 1115.39 193.71 1113 195 C1113 195.66 1113 196.32 1113 197 C1102.77 197 1092.54 197 1082 197 C1082 197.66 1082 198.32 1082 199 C1081.06 199.05 1080.12 199.1 1079.15 199.15 C1077.9 199.22 1076.66 199.3 1075.38 199.38 C1074.76 199.41 1074.76 199.41 1071.65 199.59 C1068.16 199.98 1065.27 200.76 1062 202 C1062 202.66 1062 203.32 1062 204 C1061.68 204.01 1061.68 204.01 1060.05 204.08 C1053.4 204.5 1047.55 205.87 1041.23 207.95 C1037.27 209.24 1033.27 210.32 1029.24 211.39 C1027.48 211.87 1025.73 212.42 1024 213 C1024 213.66 1024 214.32 1024 215 C1023.17 215.08 1022.35 215.16 1021.5 215.25 C1018.5 215.89 1016.9 216.5 1014.31 217.94 C1010.25 220.1 1006.34 220.85 1001.81 221.51 C998.45 222.1 995.27 223.06 992 224 C989.36 224.59 986.72 225.11 984.06 225.62 C983.72 225.69 983.72 225.69 981.99 226.03 C980.33 226.36 978.66 226.68 977 227 C977 227.66 977 228.32 977 229 C976.05 229.31 975.1 229.62 974.12 229.94 C971 231 971 231 969 232 C969 232.66 969 233.32 969 234 C968.7 234.06 968.7 234.06 967.2 234.38 C952.7 237.98 943.08 249.12 934.21 260.45 C931.51 263.56 928.7 266.15 925 268 C925 268.66 925 269.32 925 270 C924.45 270.27 923.9 270.54 923.33 270.81 C920.75 272.13 918.25 273.54 915.75 275 C914.86 275.52 913.97 276.03 913.05 276.56 C912.37 277.04 911.7 277.51 911 278 C911 278.66 911 279.32 911 280 C910.42 280.15 909.83 280.29 909.23 280.45 C902 282.42 895.61 285.49 889 289 C889 289.66 889 290.32 889 291 C887.96 291.24 886.93 291.49 885.86 291.74 C882.03 292.84 879.34 294.65 876.19 297.12 C875.16 297.92 874.13 298.72 873.07 299.55 C872.06 300.36 871.05 301.17 870 302 C869.06 302.75 868.12 303.5 867.14 304.27 C865.48 305.6 863.81 306.93 862.16 308.27 C860.71 309.43 859.23 310.54 857.72 311.6 C857.15 312.06 856.58 312.52 856 313 C856 313.66 856 314.32 856 315 C855.44 315.25 854.89 315.5 854.31 315.75 C852 317 852 317 849.81 318.94 C843.31 323.71 836.34 324.32 828.5 324.31 C820.65 324.49 816.05 325.78 810 331 C809.01 331.33 808.02 331.66 807 332 C806.74 332.29 806.74 332.29 805.44 333.75 C799.26 339.45 791.33 341.59 783.44 343.94 C770.08 347.94 770.08 347.94 765 353 C765 353.66 765 354.32 765 355 C764.41 355.26 763.82 355.52 763.21 355.79 C760.87 357.07 759.5 358.37 757.71 360.34 C744.81 374.16 744.81 374.16 735 376 C734.66 376.09 734.66 376.09 732.97 376.52 C728.7 377.21 724.49 377.14 720.18 377.13 C719.23 377.13 718.29 377.13 717.32 377.14 C715.33 377.14 713.35 377.13 711.36 377.13 C708.31 377.13 705.26 377.13 702.22 377.14 C700.29 377.14 698.36 377.13 696.43 377.13 C695.51 377.13 694.6 377.14 693.65 377.14 C692.81 377.14 691.97 377.13 691.09 377.13 C690.35 377.13 689.61 377.13 688.84 377.13 C687 377 687 377 685 376 C683.49 375.91 681.98 375.87 680.46 375.87 C679.52 375.87 678.58 375.86 677.61 375.86 C676.59 375.86 675.57 375.87 674.52 375.87 C673.47 375.87 672.42 375.87 671.34 375.86 C669.12 375.86 666.89 375.87 664.67 375.87 C661.28 375.87 657.89 375.87 654.49 375.86 C652.33 375.86 650.17 375.87 648.02 375.87 C647 375.87 645.99 375.86 644.95 375.86 C640.16 375.88 635.72 376.15 631 377 C628.17 377.14 625.37 377.23 622.54 377.27 C621.73 377.29 620.92 377.3 620.08 377.31 C617.45 377.34 614.82 377.36 612.19 377.38 C611.74 377.38 611.74 377.38 609.47 377.39 C596.21 377.43 584.18 376.29 571.26 373.17 C565.04 371.68 558.99 371.36 552.62 371.24 C548.5 370.97 544.97 370.1 541 369 C541 368.34 541 367.68 541 367 C538.77 366 536.54 365 534.3 364.02 C532.68 363.3 531.08 362.54 529.5 361.75 C525.7 360.61 521.94 360.85 518 361 C517.67 361.99 517.34 362.98 517 364 C515.25 365 515.25 365 513 366 C508.47 368.27 505.93 371.37 503 375.38 C499.01 380.64 494.8 385.51 490.12 390.19 C489.59 390.73 489.06 391.27 488.5 391.82 C484.06 396.19 480.23 399.11 474 400 C474 400.66 474 401.32 474 402 C421.91 411.69 421.91 411.69 396.16 405.69 C383.95 403.02 372.91 406.44 361.09 409.49 C355.43 410.94 349.76 412.04 344 413 C344 413.66 344 414.32 344 415 C342.89 415.12 341.77 415.25 340.62 415.38 C337 416 337 416 335 418 C334.65 418.11 334.65 418.11 332.88 418.69 C326.2 421.73 321.46 427.52 316.79 433.02 C312.96 437.26 308.52 440.83 304 444.31 C303.34 444.87 302.68 445.43 302 446 C302 446.66 302 447.32 302 448 C301.41 448.25 300.83 448.49 300.23 448.75 C297.66 450.19 296.25 451.79 294.38 454.06 C291.19 457.9 291.19 457.9 289 459 C289 459.66 289 460.32 289 461 C288.01 461.33 287.02 461.66 286 462 C284.29 463.62 282.63 465.29 281 467 C280.4 467.56 279.8 468.11 279.19 468.69 C278 470 278 470 278 472 C277.38 472.25 276.76 472.5 276.12 472.75 C274 474 274 474 273 476.06 C272 478 272 478 269.88 478.75 C269.26 478.83 268.64 478.92 268 479 C268 479.66 268 480.32 268 481 C267.42 481.08 266.85 481.17 266.25 481.25 C264 482 264 482 262.19 483.88 C259.43 486.55 256.51 487.49 253 489 C251.63 490.29 250.29 491.62 249 493 C248.55 493.27 248.55 493.27 246.25 494.62 C245.51 495.08 244.76 495.53 244 496 C244 496.66 244 497.32 244 498 C242 499 240 500 238 501 C238 501.66 238 502.32 238 503 C237.36 503.12 236.72 503.25 236.06 503.38 C235.38 503.58 234.7 503.79 234 504 C233.67 504.66 233.34 505.32 233 506 C230.94 506.63 230.94 506.63 229 507 C229 507.66 229 508.32 229 509 C228.07 509.14 227.14 509.29 226.19 509.44 C219.35 511.35 213.75 517.25 208.84 522.16 C205.08 525.91 200.88 528.06 196.02 530.05 C192.56 531.68 189.44 533.82 186.24 535.9 C181.75 538.81 177.2 541.62 172.66 544.45 C161.58 551.35 161.58 551.35 159.61 553.56 C156.96 555.93 153.62 556.84 150.31 558 C149.63 558.25 148.95 558.5 148.24 558.75 C145.44 559.77 142.63 560.79 139.8 561.75 C134.31 563.68 134.31 563.68 132.56 565.49 C129.37 568.58 124.56 569.29 120.38 570.5 C119.32 570.81 118.27 571.12 117.18 571.44 C107.31 574.18 97.48 575.43 87.31 576.39 C83.01 576.82 79.14 577.72 75 579 C71.67 579.68 68.32 580.22 64.96 580.77 C61.6 581.35 58.94 582.03 55.81 583.47 C45.38 588.19 32.66 587.35 21.48 587.38 C19.52 587.39 17.56 587.43 15.59 587.46 C14.45 587.47 13.3 587.48 12.12 587.49 C8.32 588.11 6.62 589.22 4 592 C4 593.32 4 594.64 4 596 C8.77 598.46 13.22 598.28 18.45 598.25 C18.93 598.25 18.93 598.25 21.37 598.26 C24.63 598.27 27.89 598.26 31.14 598.25 C33.5 598.25 35.86 598.26 38.22 598.26 C43.39 598.27 48.56 598.26 53.73 598.26 C61.49 598.25 69.25 598.25 77.02 598.26 C90.3 598.27 103.59 598.27 116.87 598.26 C130.42 598.26 143.96 598.25 157.51 598.26 C158.37 598.26 159.22 598.26 160.11 598.26 C164.49 598.26 168.86 598.26 173.24 598.26 C205.26 598.27 237.28 598.27 269.29 598.27 C301.75 598.26 334.22 598.26 366.68 598.26 C367.7 598.26 368.73 598.26 369.78 598.26 C379.15 598.26 388.53 598.27 397.9 598.27 C421.41 598.27 444.91 598.27 468.42 598.27 C469.49 598.27 470.57 598.27 471.68 598.27 C524.82 598.28 577.97 598.28 631.11 598.27 C633.44 598.27 635.77 598.27 638.1 598.27 C639.25 598.27 640.4 598.27 641.59 598.27 C656.81 598.27 672.03 598.27 687.25 598.27 C688.41 598.27 689.58 598.27 690.78 598.27 C744.64 598.26 798.51 598.27 852.37 598.27 C858.25 598.27 864.12 598.27 869.99 598.27 C887.7 598.27 905.4 598.27 923.1 598.27 C977.08 598.27 1031.07 598.27 1085.05 598.27 C1085.65 598.27 1085.65 598.27 1088.69 598.27 C1166.56 598.27 1244.43 598.27 1322.3 598.27 C1322.92 598.27 1322.92 598.27 1326.07 598.27 C1367.72 598.27 1409.37 598.26 1451.02 598.26 C1576.99 598.25 1702.95 598.25 1927.91 598.26 C1969.55 598.26 2011.19 598.27 2052.84 598.27 C2054.08 598.27 2055.32 598.27 2056.6 598.27 C2134.43 598.27 2212.26 598.27 2290.09 598.27 C2291.29 598.27 2292.49 598.27 2293.73 598.27 C2347.68 598.27 2401.63 598.27 2455.59 598.27 C2473.28 598.27 2490.97 598.27 2508.67 598.27 C2514.54 598.27 2520.41 598.27 2526.28 598.27 C2580.15 598.27 2634.01 598.27 2687.88 598.27 C2688.46 598.27 2688.46 598.27 2691.41 598.27 C2706.62 598.27 2721.83 598.27 2737.04 598.27 C2737.62 598.27 2737.62 598.27 2740.54 598.27 C2742.86 598.27 2745.19 598.27 2747.52 598.27 C2800.58 598.28 2853.65 598.28 2906.72 598.27 C2907.8 598.27 2908.87 598.27 2909.98 598.27 C2933.45 598.27 2956.91 598.27 2980.38 598.27 C2989.73 598.27 2999.09 598.26 3008.45 598.26 C3009.47 598.26 3010.49 598.26 3011.54 598.26 C3043.97 598.26 3076.39 598.26 3108.82 598.27 C3140.72 598.27 3172.63 598.27 3204.53 598.26 C3208.9 598.26 3213.26 598.26 3217.62 598.26 C3218.47 598.26 3219.33 598.26 3220.21 598.26 C3233.71 598.25 3247.22 598.26 3260.73 598.26 C3273.92 598.27 3287.11 598.27 3300.3 598.26 C3308.01 598.25 3315.72 598.25 3323.43 598.26 C3329.12 598.27 3334.81 598.26 3340.5 598.25 C3342.79 598.25 3345.09 598.25 3347.39 598.26 C3350.48 598.26 3353.58 598.26 3356.67 598.25 C3357.57 598.26 3358.47 598.26 3359.39 598.26 C3360.21 598.26 3361.03 598.26 3361.88 598.25 C3362.23 598.25 3362.23 598.25 3364.02 598.25 C3366.38 597.95 3367.97 597.23 3370 596 C3371.78 593.3 3372.25 591.17 3372.25 587.96 C3372.26 587.16 3372.26 586.36 3372.27 585.53 C3372.26 584.66 3372.26 583.78 3372.25 582.88 C3372.25 581.94 3372.26 581.01 3372.26 580.04 C3372.27 576.87 3372.26 573.71 3372.25 570.55 C3372.26 568.26 3372.26 565.98 3372.26 563.7 C3372.27 557.41 3372.27 551.12 3372.26 544.83 C3372.26 538.75 3372.26 532.67 3372.27 526.58 C3372.28 513.37 3372.28 500.17 3372.27 486.96 C3372.27 475.4 3372.27 463.84 3372.27 452.28 C3372.27 451.51 3372.27 450.75 3372.27 449.96 C3372.27 446.85 3372.27 443.74 3372.27 440.63 C3372.28 411.45 3372.27 382.27 3372.26 353.1 C3372.25 327.15 3372.25 301.21 3372.26 275.27 C3372.27 246.15 3372.28 217.02 3372.27 187.89 C3372.27 184.79 3372.27 181.69 3372.27 178.59 C3372.27 177.82 3372.27 177.06 3372.27 176.27 C3372.26 164.72 3372.27 153.16 3372.27 141.61 C3372.28 128.48 3372.28 115.34 3372.27 102.21 C3372.26 95.5 3372.26 88.8 3372.27 82.09 C3372.27 75.96 3372.27 69.83 3372.26 63.7 C3372.26 61.48 3372.26 59.25 3372.26 57.02 C3372.27 54.01 3372.26 51 3372.25 47.99 C3372.26 47.12 3372.26 46.24 3372.27 45.33 C3372.23 39.34 3372.23 39.34 3370 36 C3357.65 34.02 3348.25 44.92 3339.72 52.49 Z " fill="#000000" transform="translate(0,0)"/>
<path d="M0 0 C2.65 3.97 2.28 7.39 2.25 11.99 C2.25 12.93 2.26 13.87 2.26 14.83 C2.27 18 2.26 21.16 2.25 24.33 C2.26 26.61 2.26 28.89 2.26 31.17 C2.27 37.46 2.27 43.75 2.26 50.04 C2.26 56.12 2.26 62.2 2.27 68.28 C2.28 81.49 2.28 94.7 2.27 107.91 C2.27 119.47 2.27 131.03 2.27 142.59 C2.27 143.35 2.27 144.12 2.27 144.91 C2.27 148.01 2.27 151.12 2.27 154.23 C2.28 183.41 2.27 212.59 2.26 241.77 C2.25 267.72 2.25 293.66 2.26 319.6 C2.27 348.72 2.28 377.85 2.27 406.97 C2.27 410.07 2.27 413.18 2.27 416.28 C2.27 417.04 2.27 417.81 2.27 418.6 C2.26 430.15 2.27 441.7 2.27 453.26 C2.28 466.39 2.28 479.52 2.27 492.66 C2.26 499.36 2.26 506.07 2.27 512.77 C2.27 518.91 2.27 525.04 2.26 531.17 C2.26 533.4 2.26 535.62 2.26 537.85 C2.27 540.86 2.26 543.87 2.25 546.88 C2.26 547.76 2.26 548.63 2.27 549.53 C2.26 550.33 2.26 551.14 2.25 551.96 C2.25 552.31 2.25 552.31 2.25 554.05 C1.94 556.46 1.34 557.97 0 560 C-2.79 561.69 -4.88 562.25 -8.12 562.25 C-8.94 562.25 -9.76 562.26 -10.61 562.26 C-11.5 562.26 -12.4 562.26 -13.33 562.25 C-13.81 562.25 -13.81 562.25 -16.24 562.26 C-19.5 562.27 -22.76 562.26 -26.02 562.25 C-28.38 562.25 -30.73 562.26 -33.09 562.26 C-38.26 562.27 -43.43 562.26 -48.6 562.26 C-56.36 562.25 -64.13 562.25 -71.89 562.26 C-85.17 562.27 -98.46 562.27 -111.74 562.26 C-125.29 562.26 -138.83 562.25 -152.38 562.26 C-153.24 562.26 -154.1 562.26 -154.98 562.26 C-159.36 562.26 -163.73 562.26 -168.11 562.26 C-200.13 562.27 -232.14 562.27 -264.16 562.27 C-296.62 562.26 -329.09 562.26 -361.55 562.26 C-362.57 562.26 -363.6 562.26 -364.65 562.26 C-374.02 562.26 -383.39 562.27 -392.77 562.27 C-416.27 562.27 -439.78 562.27 -463.28 562.27 C-464.36 562.27 -465.43 562.27 -466.54 562.27 C-519.69 562.28 -572.83 562.28 -625.97 562.27 C-628.3 562.27 -630.63 562.27 -632.96 562.27 C-634.11 562.27 -635.27 562.27 -636.46 562.27 C-651.68 562.27 -666.9 562.27 -682.12 562.27 C-683.28 562.27 -684.44 562.27 -685.64 562.27 C-739.51 562.26 -793.37 562.27 -847.24 562.27 C-853.11 562.27 -858.99 562.27 -864.86 562.27 C-882.56 562.27 -900.26 562.27 -917.96 562.27 C-971.95 562.27 -1025.93 562.27 -1079.91 562.27 C-1081.11 562.27 -1082.32 562.27 -1083.55 562.27 C-1161.42 562.27 -1239.29 562.27 -1317.16 562.27 C-1317.79 562.27 -1317.79 562.27 -1320.93 562.27 C-1362.59 562.27 -1404.24 562.26 -1445.89 562.26 C-1571.86 562.25 -1697.82 562.25 -1922.78 562.26 C-1964.42 562.26 -2006.06 562.27 -2047.7 562.27 C-2048.32 562.27 -2048.32 562.27 -2051.47 562.27 C-2129.3 562.27 -2207.12 562.27 -2284.95 562.27 C-2286.15 562.27 -2287.35 562.27 -2288.59 562.27 C-2342.55 562.27 -2396.5 562.27 -2450.45 562.27 C-2468.15 562.27 -2485.84 562.27 -2503.53 562.27 C-2509.4 562.27 -2515.27 562.27 -2521.14 562.27 C-2575.01 562.27 -2628.88 562.27 -2682.75 562.27 C-2683.33 562.27 -2683.33 562.27 -2686.27 562.27 C-2701.48 562.27 -2716.69 562.27 -2731.9 562.27 C-2732.48 562.27 -2732.48 562.27 -2735.4 562.27 C-2737.73 562.27 -2740.05 562.27 -2742.38 562.27 C-2795.45 562.28 -2848.51 562.28 -2901.58 562.27 C-2902.12 562.27 -2902.12 562.27 -2904.84 562.27 C-2928.31 562.27 -2951.78 562.27 -2975.24 562.27 C-2984.6 562.27 -2993.96 562.26 -3003.32 562.26 C-3004.34 562.26 -3005.36 562.26 -3006.41 562.26 C-3038.84 562.26 -3071.26 562.26 -3103.69 562.27 C-3135.59 562.27 -3167.5 562.27 -3199.4 562.26 C-3203.77 562.26 -3208.13 562.26 -3212.49 562.26 C-3213.35 562.26 -3214.2 562.26 -3215.08 562.26 C-3228.59 562.25 -3242.09 562.26 -3255.6 562.26 C-3268.79 562.27 -3281.98 562.27 -3295.17 562.26 C-3302.88 562.25 -3310.59 562.25 -3318.3 562.26 C-3323.99 562.27 -3329.68 562.26 -3335.37 562.25 C-3337.67 562.25 -3339.96 562.25 -3342.26 562.26 C-3345.35 562.26 -3348.45 562.26 -3351.55 562.25 C-3352.44 562.26 -3353.34 562.26 -3354.26 562.26 C-3358.63 562.24 -3362.03 562.05 -3366 560 C-3365.69 557.09 -3365.46 555.46 -3363.35 553.36 C-3360.29 551.59 -3358.13 551.62 -3354.61 551.59 C-3353.35 551.57 -3352.09 551.55 -3350.79 551.53 C-3350.13 551.53 -3349.47 551.52 -3348.79 551.52 C-3322.46 551.28 -3322.46 551.28 -3311.58 546.5 C-3307.8 544.92 -3304.14 544.1 -3300.12 543.44 C-3298.79 543.21 -3297.46 542.98 -3296.13 542.75 C-3295.8 542.69 -3295.8 542.69 -3294.09 542.4 C-3291.9 541.98 -3289.73 541.47 -3287.56 540.95 C-3283.8 540.1 -3280.16 539.71 -3276.31 539.47 C-3267.25 538.87 -3258.79 537.15 -3250.06 534.62 C-3249.04 534.33 -3248.01 534.04 -3246.96 533.74 C-3241.7 532.14 -3238.27 530.5 -3234 527 C-3230.71 525.58 -3227.34 524.48 -3223.94 523.38 C-3222.15 522.78 -3220.37 522.18 -3218.59 521.59 C-3217.8 521.33 -3217.02 521.07 -3216.21 520.81 C-3213.4 519.78 -3210.81 518.82 -3208.69 516.67 C-3206.1 514.11 -3203.03 512.24 -3200 510.25 C-3199.33 509.81 -3198.66 509.37 -3197.97 508.91 C-3192.36 505.21 -3186.69 501.58 -3181 498 C-3180.27 497.53 -3179.54 497.05 -3178.79 496.57 C-3174.66 493.9 -3170.54 491.93 -3166 490 C-3161.72 487.43 -3158.47 484.56 -3155 481 C-3150.56 476.66 -3147.13 474.25 -3141 473 C-3141 472.34 -3141 471.68 -3141 471 C-3140.4 470.9 -3139.8 470.79 -3139.19 470.69 C-3136.7 469.91 -3135.77 468.85 -3134 467 C-3133.34 467 -3132.68 467 -3132 467 C-3132 466.34 -3132 465.68 -3132 465 C-3128.54 462 -3128.54 462 -3126 462 C-3126 461.34 -3126 460.68 -3126 460 C-3125.47 459.72 -3125.47 459.72 -3122.81 458.31 C-3120.21 456.84 -3118.64 455.63 -3116.5 453.44 C-3113.57 450.58 -3110.76 449.53 -3107 448 C-3105.19 446.31 -3105.19 446.31 -3104 445 C-3103.34 445 -3102.68 445 -3102 445 C-3102 444.34 -3102 443.68 -3102 443 C-3101.38 442.92 -3100.76 442.83 -3100.12 442.75 C-3097.32 441.76 -3097.26 440.6 -3096 438 C-3094.67 437.33 -3093.33 436.67 -3092 436 C-3091.85 435.69 -3091.85 435.69 -3091.06 434.12 C-3089.63 431.26 -3087.51 429.94 -3085 428 C-3084.34 427.01 -3083.68 426.02 -3083 425 C-3082.34 425 -3081.68 425 -3081 425 C-3081 424.34 -3081 423.68 -3081 423 C-3079.57 421.8 -3078.13 420.6 -3076.66 419.44 C-3074.97 417.97 -3073.64 416.44 -3072.25 414.69 C-3071.51 413.8 -3070.76 412.91 -3070 412 C-3069.34 412 -3068.68 412 -3068 412 C-3068 411.34 -3068 410.68 -3068 410 C-3066.49 408.67 -3064.91 407.41 -3063.31 406.19 C-3058.41 402.36 -3054.16 398.4 -3050.19 393.62 C-3045.72 388.36 -3040.77 383.01 -3034 381 C-3033.13 380.63 -3032.27 380.26 -3031.38 379.88 C-3029 379 -3029 379 -3026 379 C-3026 378.34 -3026 377.68 -3026 377 C-3025.34 376.86 -3024.67 376.73 -3023.99 376.59 C-3020.91 375.96 -3017.83 375.32 -3014.75 374.69 C-3013.64 374.46 -3012.54 374.23 -3011.4 374 C-3005.99 372.88 -3000.64 371.69 -2995.31 370.19 C-2986.81 368.02 -2978.85 368.47 -2970.38 370.5 C-2945.91 375.74 -2920.18 370.5 -2896 366 C-2896 365.34 -2896 364.68 -2896 364 C-2895.05 363.86 -2894.1 363.71 -2893.12 363.56 C-2887.24 361.89 -2883.26 357.17 -2879 353 C-2878.28 352.32 -2877.57 351.64 -2876.83 350.95 C-2872.66 346.92 -2869.09 342.66 -2865.59 338.04 C-2862.56 334.16 -2859.13 330.71 -2855 328 C-2854.34 328 -2853.68 328 -2853 328 C-2852.67 327.01 -2852.34 326.02 -2852 325 C-2846.07 324.51 -2842.06 325.04 -2836.86 327.98 C-2834.35 329.35 -2831.73 330.18 -2829 331 C-2829 331.66 -2829 332.32 -2829 333 C-2823.71 334.47 -2819.08 335.21 -2813.56 335.31 C-2807.46 335.52 -2801.84 336.42 -2795.91 337.86 C-2783.1 340.9 -2770.92 341.45 -2757.81 341.38 C-2757.37 341.37 -2757.37 341.37 -2755.12 341.36 C-2752.57 341.34 -2750.01 341.31 -2747.46 341.27 C-2746.69 341.26 -2745.93 341.25 -2745.14 341.24 C-2742.09 341.17 -2739.16 341.03 -2736.16 340.49 C-2731.44 339.76 -2726.75 339.86 -2721.98 339.87 C-2721.46 339.87 -2721.46 339.87 -2718.8 339.86 C-2716.58 339.86 -2714.36 339.87 -2712.15 339.87 C-2708.75 339.88 -2705.35 339.87 -2701.95 339.86 C-2699.79 339.86 -2697.64 339.87 -2695.48 339.87 C-2694.46 339.87 -2693.44 339.86 -2692.39 339.86 C-2691.45 339.86 -2690.51 339.87 -2689.54 339.87 C-2688.71 339.87 -2687.88 339.87 -2687.02 339.87 C-2685 340 -2685 340 -2683 341 C-2679.93 341.12 -2676.89 341.19 -2673.82 341.2 C-2672.9 341.21 -2671.97 341.21 -2671.02 341.22 C-2669.06 341.23 -2667.1 341.24 -2665.14 341.24 C-2662.17 341.25 -2659.21 341.28 -2656.24 341.31 C-2641.51 341.4 -2629.23 341.2 -2618.2 330.33 C-2616.88 328.97 -2615.56 327.61 -2614.25 326.25 C-2612.93 324.88 -2611.6 323.51 -2610.27 322.14 C-2609.69 321.54 -2609.11 320.93 -2608.51 320.31 C-2607 319 -2607 319 -2605 319 C-2604.67 318.01 -2604.34 317.02 -2604 316 C-2597.6 310.36 -2589.35 308.5 -2581.35 306.26 C-2575 304.43 -2569.18 302.25 -2564 298 C-2563.67 297.34 -2563.34 296.68 -2563 296 C-2561.34 295.01 -2559.68 294.02 -2557.98 293.1 C-2556 292 -2556 292 -2553.84 290.4 C-2549.85 288.43 -2546.26 288.6 -2541.88 288.56 C-2533.2 288.29 -2524.4 287.76 -2517.94 281.25 C-2517.3 280.51 -2516.66 279.76 -2516 279 C-2515.34 279 -2514.68 279 -2514 279 C-2513.67 278.01 -2513.34 277.02 -2513 276 C-2510.91 274.18 -2508.83 272.48 -2506.62 270.81 C-2506 270.33 -2505.37 269.84 -2504.72 269.35 C-2503.43 268.36 -2502.14 267.38 -2500.85 266.4 C-2499.18 265.14 -2497.52 263.85 -2495.87 262.57 C-2491.02 258.88 -2487.05 256.08 -2481 255 C-2481 254.34 -2481 253.68 -2481 253 C-2478.27 251.68 -2475.54 250.37 -2472.81 249.06 C-2472.04 248.69 -2471.27 248.32 -2470.48 247.93 C-2466.68 246.12 -2463.23 244.53 -2459 244 C-2459 243.34 -2459 242.68 -2459 242 C-2456.95 240.56 -2456.95 240.56 -2454.25 239 C-2453.81 238.74 -2453.81 238.74 -2451.58 237.44 C-2449.41 236.23 -2447.23 235.08 -2445 234 C-2445 233.34 -2445 232.68 -2445 232 C-2444.2 231.5 -2443.39 231.01 -2442.56 230.5 C-2436.78 226.84 -2432.54 221.07 -2428.22 215.85 C-2421.27 207.56 -2413.53 201.08 -2403 198 C-2402.34 198 -2401.68 198 -2401 198 C-2401 197.34 -2401 196.68 -2401 196 C-2395.25 193 -2395.25 193 -2393 193 C-2393 192.34 -2393 191.68 -2393 191 C-2392.5 190.9 -2392.5 190.9 -2389.96 190.41 C-2388.62 190.15 -2387.28 189.89 -2385.94 189.62 C-2385.28 189.5 -2384.62 189.37 -2383.95 189.24 C-2379.55 188.38 -2375.3 187.25 -2371 186 C-2368.88 185.53 -2366.75 185.07 -2364.62 184.62 C-2359.68 183.51 -2355.33 182.05 -2350.8 179.77 C-2349 179 -2349 179 -2346 179 C-2346 178.34 -2346 177.68 -2346 177 C-2343.04 175.66 -2340.17 174.78 -2337 174.12 C-2333.1 173.32 -2329.4 172.18 -2325.62 170.94 C-2319.74 169.07 -2314.16 168.25 -2308 168 C-2308 167.34 -2308 166.68 -2308 166 C-2303.48 164.29 -2299.44 163.65 -2294.62 163.38 C-2293.38 163.3 -2292.13 163.23 -2290.85 163.15 C-2289.91 163.1 -2288.97 163.05 -2288 163 C-2288 162.34 -2288 161.68 -2288 161 C-2277.77 161 -2267.54 161 -2257 161 C-2257 160.34 -2257 159.68 -2257 159 C-2255.71 158.33 -2254.42 157.66 -2253.12 157 C-2252.77 156.81 -2252.77 156.81 -2250.95 155.88 C-2249 155 -2249 155 -2247 155 C-2247 154.34 -2247 153.68 -2247 153 C-2246.32 152.73 -2245.65 152.47 -2244.95 152.2 C-2244.06 151.84 -2243.17 151.49 -2242.25 151.12 C-2241.37 150.78 -2240.49 150.43 -2239.58 150.07 C-2237 149 -2237 149 -2235.14 147.95 C-2231.16 146.18 -2226.84 146.66 -2222.56 146.69 C-2222.06 146.69 -2222.06 146.69 -2219.53 146.69 C-2213.27 146.78 -2207.85 147.55 -2201.82 149.27 C-2195.03 150.57 -2188.1 150.5 -2181.2 150.62 C-2175.39 150.75 -2170.5 151.12 -2165 153 C-2163.23 153.38 -2161.46 153.73 -2159.69 154.06 C-2155.22 154.89 -2155.22 154.89 -2153 156 C-2150.88 156.11 -2148.75 156.18 -2146.62 156.25 C-2132.71 157.27 -2124.5 163.02 -2115.53 173.18 C-2111.32 178.19 -2107.66 183.58 -2104 189 C-2099.87 194.96 -2095.15 200.2 -2090.14 205.43 C-2087.59 208.12 -2085.38 210.53 -2084 214 C-2083.34 214 -2082.68 214 -2082 214 C-2082 214.66 -2082 215.32 -2082 216 C-2081.41 216.27 -2080.82 216.54 -2080.22 216.81 C-2077.34 218.35 -2075.18 220.38 -2072.78 222.56 C-2070.94 224.05 -2069.12 224.97 -2067 226 C-2066.53 226.5 -2066.05 226.99 -2065.56 227.5 C-2063.58 229.4 -2061.56 230.1 -2059 231 C-2059 231.66 -2059 232.32 -2059 233 C-2058.66 233.12 -2058.66 233.12 -2056.94 233.75 C-2053.43 235.24 -2050.28 237.07 -2047 239 C-2047 239.66 -2047 240.32 -2047 241 C-2046.28 241.21 -2045.56 241.41 -2044.81 241.62 C-2041.79 243.1 -2040.28 244.81 -2038.24 247.44 C-2037 249 -2037 249 -2034.69 251.25 C-2032.3 253.7 -2030.32 256.16 -2028.25 258.88 C-2024.36 263.81 -2020.11 267.39 -2015 271 C-2014.35 271.5 -2013.69 271.99 -2013.02 272.5 C-2010.04 274.73 -2007.64 276.26 -2004 277 C-2004 277.66 -2004 278.32 -2004 279 C-2003.2 279.1 -2002.39 279.21 -2001.56 279.31 C-1997.94 280.01 -1994.62 281.06 -1991.15 282.28 C-1978.91 286.38 -1965.81 283.26 -1953.44 281.06 C-1943.64 279.34 -1934.97 278.98 -1925 280 C-1912.63 280.62 -1900.68 279.88 -1888.44 278.08 C-1877.99 276.59 -1866.36 275.46 -1856 278 C-1856 278.66 -1856 279.32 -1856 280 C-1855.28 279.9 -1854.56 279.79 -1853.81 279.69 C-1849.84 280.13 -1848.65 282.09 -1846 285 C-1845.55 285.34 -1845.55 285.34 -1843.25 287.06 C-1840.9 289.09 -1840.32 289.97 -1840 293 C-1839.34 293 -1838.68 293 -1838 293 C-1836 296 -1836 296 -1836 300 C-1835.34 300 -1834.68 300 -1834 300 C-1833.78 300.51 -1833.56 301.02 -1833.34 301.55 C-1818.48 335.61 -1818.48 335.61 -1803 342 C-1800.27 342.31 -1797.84 342.48 -1795.12 342.44 C-1794.42 342.43 -1793.71 342.43 -1792.98 342.42 C-1787.21 342.25 -1783.77 341.15 -1779 338 C-1774.18 335 -1774.18 335 -1771 335 C-1771 334.34 -1771 333.68 -1771 333 C-1747.82 324.89 -1724.71 330.43 -1702 338 C-1702 338.66 -1702 339.32 -1702 340 C-1701.46 340.05 -1700.91 340.1 -1700.35 340.15 C-1686.5 341.47 -1673.1 343.88 -1659.56 347 C-1658.81 347.17 -1658.05 347.35 -1657.27 347.52 C-1649.39 349.34 -1641.62 351.25 -1634 354 C-1634 354.66 -1634 355.32 -1634 356 C-1631.36 356.66 -1628.72 357.32 -1626 358 C-1626 358.66 -1626 359.32 -1626 360 C-1624.02 360.66 -1622.04 361.32 -1620 362 C-1620 362.66 -1620 363.32 -1620 364 C-1619.27 364.23 -1618.54 364.46 -1617.78 364.7 C-1614.47 366.25 -1612.86 368.04 -1610.5 370.81 C-1609.72 371.71 -1608.95 372.6 -1608.14 373.53 C-1607.44 374.34 -1606.73 375.16 -1606 376 C-1604.37 377.71 -1602.7 379.35 -1601 381 C-1600.41 381.67 -1599.82 382.35 -1599.21 383.04 C-1595.17 386.63 -1590.26 386.9 -1585 387 C-1581.08 386.17 -1577.63 384.67 -1574 383 C-1571.84 382.08 -1569.67 381.16 -1567.5 380.25 C-1566.52 379.82 -1565.54 379.39 -1564.53 378.95 C-1562 378 -1562 378 -1559 378 C-1559 377.34 -1559 376.68 -1559 376 C-1558.57 375.87 -1558.57 375.87 -1556.4 375.19 C-1549.48 372.81 -1544.8 370.78 -1540.46 364.77 C-1538.82 362.78 -1537.31 362.09 -1535 361 C-1534.67 360.34 -1534.34 359.68 -1534 359 C-1533.01 359 -1532.02 359 -1531 359 C-1530.67 358.01 -1530.34 357.02 -1530 356 C-1527.29 355.11 -1524.79 354.52 -1522 354 C-1521.06 353.81 -1520.11 353.63 -1519.14 353.43 C-1508.74 351.58 -1491.77 349.12 -1482 354 C-1482 354.66 -1482 355.32 -1482 356 C-1481.29 356.09 -1480.59 356.19 -1479.86 356.29 C-1476.48 357.13 -1474.12 358.55 -1471.19 360.44 C-1470.21 361.05 -1469.24 361.67 -1468.23 362.31 C-1467.86 362.59 -1467.86 362.59 -1466 364 C-1466 364.66 -1466 365.32 -1466 366 C-1464.68 366.33 -1463.36 366.66 -1462 367 C-1462 367.66 -1462 368.32 -1462 369 C-1459.06 370.52 -1456.08 371.8 -1453 373 C-1453 373.66 -1453 374.32 -1453 375 C-1451.93 375.14 -1450.86 375.29 -1449.75 375.44 C-1446 376 -1446 376 -1444.21 376.52 C-1441.07 377.2 -1438.03 377.25 -1434.81 377.31 C-1433.56 377.35 -1432.31 377.39 -1431.02 377.43 C-1427.84 377.3 -1425.83 376.5 -1423.05 375.01 C-1417.19 372.33 -1411.61 372.42 -1405.25 372.43 C-1404.64 372.42 -1404.64 372.42 -1401.58 372.38 C-1397.72 372.34 -1393.86 372.33 -1390 372.31 C-1384.94 372.27 -1379.87 372.23 -1374.81 372.18 C-1373.6 372.17 -1372.39 372.15 -1371.14 372.14 C-1356.67 371.99 -1342.83 371.57 -1328.88 367.36 C-1322.02 365.36 -1313.82 364.73 -1307 367 C-1305.41 367.09 -1303.81 367.13 -1302.21 367.13 C-1301.72 367.13 -1301.72 367.13 -1299.22 367.14 C-1298.13 367.13 -1297.05 367.13 -1295.94 367.12 C-1294.81 367.12 -1293.68 367.12 -1292.52 367.11 C-1283.44 367.06 -1274.37 366.91 -1265.29 366.68 C-1263.82 366.64 -1262.35 366.61 -1260.88 366.58 C-1236.92 366.05 -1236.92 366.05 -1230 360 C-1228.96 358.36 -1227.94 356.7 -1227 355 C-1226.34 355 -1225.68 355 -1225 355 C-1224.9 354.41 -1224.81 353.83 -1224.71 353.23 C-1221.95 344.57 -1209.99 340.07 -1202.56 336.15 C-1196.4 333 -1196.4 333 -1193 333 C-1193 332.34 -1193 331.68 -1193 331 C-1189.68 329.58 -1186.56 328.61 -1183 328 C-1183 327.34 -1183 326.68 -1183 326 C-1181.54 325.33 -1180.08 324.66 -1178.62 324 C-1177.81 323.63 -1177 323.26 -1176.16 322.88 C-1174 322 -1174 322 -1172 322 C-1172 321.34 -1172 320.68 -1172 320 C-1170.68 320 -1169.36 320 -1168 320 C-1168 319.34 -1168 318.68 -1168 318 C-1167.36 317.75 -1166.72 317.49 -1166.06 317.23 C-1165.19 316.89 -1164.33 316.54 -1163.44 316.19 C-1162.59 315.85 -1161.74 315.51 -1160.87 315.17 C-1159.92 314.78 -1158.98 314.4 -1158 314 C-1156.87 313.54 -1155.73 313.09 -1154.57 312.62 C-1149.83 310.47 -1145.63 307.68 -1141.28 304.84 C-1134.88 301.25 -1128.87 300.61 -1121.69 300.62 C-1120.85 300.63 -1120.01 300.63 -1119.14 300.63 C-1112.75 300.76 -1107.58 301.73 -1102 305 C-1101.36 305.36 -1100.73 305.72 -1100.07 306.09 C-1098.38 307.12 -1098.38 307.12 -1096 309 C-1096 309.66 -1096 310.32 -1096 311 C-1095.42 311.27 -1094.84 311.55 -1094.25 311.83 C-1092.01 312.99 -1090.07 314.3 -1088.03 315.79 C-1087.3 316.32 -1086.56 316.85 -1085.8 317.39 C-1084.27 318.51 -1082.73 319.62 -1081.2 320.74 C-1080.46 321.27 -1079.73 321.8 -1078.97 322.35 C-1078.3 322.83 -1077.64 323.32 -1076.95 323.82 C-1074.96 325.03 -1073.28 325.57 -1071 326 C-1071 326.66 -1071 327.32 -1071 328 C-1062.02 330.07 -1053.35 329.89 -1045 326 C-1043.27 325.35 -1041.54 324.71 -1039.81 324.06 C-1035.98 322.54 -1033.13 320.74 -1030 318 C-1029.34 318 -1028.68 318 -1028 318 C-1028 317.34 -1028 316.68 -1028 316 C-1027.34 316 -1026.68 316 -1026 316 C-1026 315.34 -1026 314.68 -1026 314 C-1024.24 312.45 -1024.24 312.45 -1021.88 310.69 C-1019.03 308.55 -1016.25 306.4 -1013.56 304.06 C-1011 302 -1011 302 -1009 302 C-1009 301.34 -1009 300.68 -1009 300 C-1007.17 298.63 -1007.17 298.63 -1004.75 297.12 C-1002.08 295.42 -999.97 293.96 -997.75 291.69 C-995.59 289.6 -993.94 289.33 -991 289 C-991 288.34 -991 287.68 -991 287 C-990.05 286.63 -989.1 286.26 -988.12 285.88 C-983.91 284.1 -980.16 281.69 -976.33 279.21 C-974 278 -974 278 -970 278 C-969.67 277.01 -969.34 276.02 -969 275 C-967.35 274.05 -965.69 273.1 -963.98 272.26 C-961.26 270.53 -959.25 268.3 -957 266 C-955.02 264.24 -953.03 262.51 -951 260.81 C-950.75 260.59 -950.75 260.59 -949.46 259.49 C-942.9 253.97 -937.79 253.67 -929.5 253.75 C-928.51 253.76 -927.53 253.76 -926.51 253.77 C-914.14 253.95 -901.23 255.38 -890 261 C-890 261.66 -890 262.32 -890 263 C-889.32 263.22 -888.63 263.44 -887.93 263.67 C-884.18 265.37 -881.3 267.72 -878.12 270.31 C-865.52 280.49 -865.52 280.49 -861 282 C-861 282.66 -861 283.32 -861 284 C-848.42 288.34 -836.38 291.98 -823.06 292.5 C-821.3 292.57 -819.54 292.64 -817.79 292.72 C-817.01 292.75 -816.24 292.78 -815.44 292.81 C-813 293 -813 293 -810.22 293.5 C-806.36 294.1 -802.54 294.21 -798.64 294.28 C-798.25 294.29 -798.25 294.29 -796.27 294.34 C-792.94 294.42 -789.61 294.48 -786.28 294.55 C-783.84 294.6 -781.4 294.66 -778.96 294.72 C-778.2 294.73 -777.45 294.75 -776.67 294.76 C-773.54 294.83 -771 295 -768 296 C-768 296.66 -768 297.32 -768 298 C-766.17 298.31 -764.33 298.63 -762.5 298.94 C-761.99 299.02 -761.99 299.02 -759.41 299.46 C-733.88 303.48 -733.88 303.48 -726.5 298.94 C-725.3 298 -724.14 297.02 -723 296 C-721.42 294.72 -719.84 293.45 -718.25 292.19 C-717.53 291.58 -716.82 290.98 -716.08 290.36 C-714 289 -714 289 -710 289 C-710 288.34 -710 287.68 -710 287 C-709.58 286.84 -709.58 286.84 -707.44 286 C-703.78 283.87 -701.93 281.81 -699.27 278.61 C-696.21 275.1 -692.97 271.8 -689.69 268.5 C-689.06 267.86 -688.44 267.23 -687.8 266.57 C-687.21 265.98 -686.62 265.39 -686.01 264.78 C-685.48 264.25 -684.95 263.71 -684.4 263.16 C-683 262 -683 262 -681 262 C-680.67 261.01 -680.34 260.02 -680 259 C-678 258 -676 257 -674 256 C-673.57 255.56 -673.57 255.56 -671.38 253.31 C-669 251 -669 251 -665 251 C-665 250.34 -665 249.68 -665 249 C-659.28 247.47 -653.84 246.82 -647.94 246.56 C-636.25 245.97 -628.37 242.02 -620.5 233.31 C-617.08 229.24 -613.97 224.95 -610.89 220.61 C-605.32 212.92 -605.32 212.92 -601.62 210.25 C-601.35 210.05 -601.35 210.05 -599.98 209.02 C-595.33 206.63 -590.15 206.92 -585.05 207.08 C-583.7 207.11 -582.36 207.14 -581.01 207.17 C-580.31 207.18 -579.62 207.2 -578.9 207.21 C-556.87 207.59 -540.99 202.04 -521.05 192.84 C-519 192 -519 192 -517 192 C-517 191.34 -517 190.68 -517 190 C-516.18 189.67 -516.18 189.67 -512 188 C-512 187.34 -512 186.68 -512 186 C-511.01 186 -510.02 186 -509 186 C-508.9 185.72 -508.9 185.72 -508.37 184.29 C-506.48 181.13 -504.03 179.53 -501.06 177.38 C-500 176.6 -498.94 175.82 -497.85 175.02 C-492.19 171 -492.19 171 -488 171 C-488 170.34 -488 169.68 -488 169 C-485.69 168.67 -483.38 168.34 -481 168 C-481 167.34 -481 166.68 -481 166 C-480.61 165.89 -480.61 165.89 -478.66 165.34 C-465.39 161.3 -458.98 154.9 -452.25 142.88 C-447.23 136.46 -439.72 131.57 -432 129 C-431.01 129 -430.02 129 -429 129 C-429 128.34 -429 127.68 -429 127 C-420.99 125.95 -413.01 125.68 -404.94 125.44 C-403.58 125.39 -402.23 125.35 -400.87 125.31 C-397.58 125.2 -394.29 125.1 -391 125 C-391 124.34 -391 123.68 -391 123 C-390.47 122.88 -390.47 122.88 -387.81 122.25 C-383.29 120.96 -380.43 118.47 -377.17 115.12 C-374.87 112.88 -372.47 110.92 -369.94 108.94 C-365.27 105.28 -365.27 105.28 -363.32 103.25 C-362 102 -362 102 -360 102 C-359.84 101.5 -359.84 101.5 -359 99 C-352.43 94.23 -344.78 94.32 -337 95 C-334.22 95.49 -331.7 96.15 -329 97 C-329 97.66 -329 98.32 -329 99 C-328.14 99.26 -327.28 99.51 -326.39 99.78 C-322.89 101.04 -319.99 102.63 -316.81 104.56 C-311.29 107.9 -311.29 107.9 -308 109 C-308 109.66 -308 110.32 -308 111 C-307.36 111.1 -307.36 111.1 -304.12 111.62 C-294.42 113.86 -287.78 119.91 -280.77 126.59 C-273.35 133.62 -266.23 138.65 -256 140 C-255.67 140.33 -255.34 140.66 -255 141 C-253.49 141.23 -251.96 141.41 -250.44 141.56 C-249.61 141.65 -248.78 141.73 -247.93 141.82 C-247.3 141.88 -246.66 141.94 -246 142 C-246 142.66 -246 143.32 -246 144 C-245.36 144.08 -244.72 144.16 -244.06 144.25 C-239.1 145.46 -234.56 147.72 -230 150 C-230 150.66 -230 151.32 -230 152 C-227.03 152.99 -224.06 153.98 -221 155 C-221 155.66 -221 156.32 -221 157 C-220.48 157.11 -219.97 157.23 -219.43 157.35 C-216.24 158.2 -213.17 159.32 -210.06 160.44 C-208.86 160.87 -207.65 161.3 -206.41 161.75 C-204.37 162.5 -202.34 163.28 -200.34 164.14 C-193.09 166.79 -183.21 165.13 -176 163 C-170.75 160.31 -166.13 157.21 -162 153 C-161.28 152.61 -160.56 152.22 -159.81 151.81 C-149.83 145.38 -144.53 135.9 -140.31 125.12 C-137.54 118.3 -134.46 111.76 -130.88 105.31 C-130.48 104.6 -130.08 103.88 -129.68 103.14 C-122.32 90.16 -113.87 83.85 -100.56 77.31 C-98 76 -98 76 -95.75 74.31 C-94 73 -94 73 -92 73 C-91.87 72.68 -91.87 72.68 -91.19 71.06 C-90 69 -90 69 -87 68 C-86.32 66.67 -85.66 65.34 -85 64 C-83.12 62.08 -83.12 62.08 -81 60.25 C-80.65 59.94 -80.65 59.94 -78.88 58.39 C-77 57 -77 57 -75 57 C-74.67 56.01 -74.34 55.02 -74 54 C-71.41 52.24 -71.41 52.24 -68.06 50.31 C-59.34 45.14 -51.75 39.44 -45.38 31.47 C-44.92 30.98 -44.47 30.5 -44 30 C-43.34 30 -42.68 30 -42 30 C-41.75 29.44 -41.51 28.89 -41.25 28.31 C-38.61 23.44 -35.06 20.04 -30.75 16.62 C-27.36 13.92 -24.07 11.18 -20.88 8.25 C-14.53 2.7 -8.64 -1.21 0 0 Z " fill="#F4F4F4" transform="translate(3370,36)"/>
</svg>
