<?xml version="1.0" encoding="UTF-8"?>
<svg id="Layer_1" xmlns="http://www.w3.org/2000/svg" version="1.1" viewBox="0 0 433.14 371.67">
  <!-- Generator: Adobe Illustrator 30.3.0, SVG Export Plug-In . SVG Version: 2.1.3 Build 182)  -->
  <defs>
    <style>
      .st0 {
        fill: #b51222;
      }

      .st1 {
        fill: #0095cb;
      }
    </style>
  </defs>
  <g>
    <g>
      <path class="st1" d="M165.71,291.75l-1.44.21c-.21.03-.5.05-.71.03-.93-.1-1.65-.97-1.54-1.9.09-.8.68-1.42,1.51-1.56l2.64-.47c.77-.12,1.36-.19,1.9-.13h.05c1.09.13,1.87,1.1,1.75,2.19l-1.62,14.58c-.12,1.08-1.1,1.87-2.18,1.75-1.09-.12-1.87-1.1-1.75-2.18l1.39-12.51Z"/>
      <path class="st1" d="M174.95,306.11c-.53-.36-.9-.95-.87-1.67.04-1.04.93-1.79,1.97-1.75.39.01.72.16,1.03.35.91.58,1.74.87,2.88.92,2.23.09,3.5-1.56,3.85-3.99-.91.72-2.15,1.17-3.74,1.1-3.95-.15-6.41-2.43-6.27-6.12v-.05c.14-3.66,3.08-6.26,7.19-6.1,2.44.09,3.85.75,5.17,2.18,1.25,1.35,2.03,3.36,1.89,6.94v.05c-.23,5.9-3.17,9.82-8.34,9.62-2.03-.08-3.44-.6-4.76-1.49ZM184.07,295.2v-.05c.06-1.61-1.09-2.83-3.09-2.9-1.98-.08-3.14,1.02-3.2,2.63v.05c-.06,1.61,1.09,2.77,3.06,2.85,1.98.08,3.16-1.02,3.22-2.58Z"/>
      <path class="st1" d="M192.33,303.64l4.99-4.45c2.18-1.94,3.02-2.99,2.96-4.5-.06-1.53-1.11-2.32-2.54-2.26-1.14.05-1.93.58-2.89,1.71-.25.3-.7.6-1.33.63-1.01.04-1.85-.73-1.9-1.74-.02-.44.14-.92.41-1.27,1.38-1.75,3.06-2.81,5.81-2.92,3.77-.16,6.35,1.94,6.5,5.34v.05c.13,3.04-1.36,4.61-4.48,7.24l-2.86,2.41,6.34-.27c.96-.04,1.77.71,1.81,1.67s-.71,1.75-1.67,1.79l-9.87.42c-1.25.05-2.19-.61-2.24-1.8-.03-.78.3-1.47.95-2.04Z"/>
      <path class="st1" d="M211.45,304.75c-1.48-1.15-2.56-2.98-3.01-6.56v-.05c-.72-5.57,1.26-10.17,6.65-10.86,1.8-.23,3.33.02,4.5.53.67.28,1.15.77,1.25,1.57.13,1.03-.62,1.94-1.65,2.07-.33.04-.71-.04-1.02-.16-.88-.36-1.67-.52-2.75-.38-2.24.29-3.15,2.24-3.1,4.64.83-.71,1.81-1.41,3.59-1.64,3.58-.46,6.6,1.17,7.08,4.94v.05c.48,3.69-2.16,6.62-6.08,7.12-2.35.3-4.03-.17-5.46-1.27ZM219.07,299.58v-.05c-.2-1.52-1.53-2.48-3.49-2.23-1.96.25-2.96,1.48-2.76,3v.05c.2,1.52,1.54,2.53,3.5,2.28,1.96-.25,2.95-1.5,2.75-3.05Z"/>
    </g>
    <g>
      <path class="st1" d="M44.01,126.28l-.03-.04c-3.46-3.85-3.3-9.69.8-13.38,2.05-1.84,3.82-2.6,5.8-2.84.48-.05,1.18.06,1.7.64.73.81.66,2.06-.15,2.79-.43.38-.83.47-1.19.51-1.33.15-2.52.59-3.79,1.73-2.17,1.95-2.16,5.41-.09,7.71l.03.04c2.23,2.47,5.56,2.76,7.96.6,1.08-.97,1.81-2.11,2.07-3.33l-1.74-1.93-2.01,1.81c-.72.64-1.8.6-2.44-.11-.64-.71-.59-1.82.13-2.46l3.4-3.06c.83-.75,2.08-.68,2.83.15l2.96,3.29c.78.87.99,1.77.66,2.83-.49,1.67-1.49,3.79-3.52,5.62-4.21,3.79-9.78,3.44-13.38-.56Z"/>
      <path class="st1" d="M64.9,118.52c-.52-.03-1.13-.33-1.48-.85-.59-.88-.38-2.06.5-2.65.41-.28.74-.34,1.22-.32,1,.05,1.76-.09,2.51-.59,1.29-.87,1.56-2.15.39-3.89l-5.51-8.2c-.62-.93-.38-2.15.54-2.78s2.15-.38,2.78.55l5.61,8.35c1.2,1.79,1.58,3.48,1.29,4.99-.3,1.55-1.34,2.94-2.98,4.04-1.73,1.16-3.43,1.46-4.88,1.37Z"/>
      <path class="st1" d="M77.69,109.36l-6.62-12.56c-.52-.99-.15-2.18.84-2.7l8.93-4.7c.87-.46,1.96-.12,2.42.75.46.87.11,1.94-.76,2.4l-7.18,3.78,1.72,3.27,6.14-3.23c.87-.46,1.96-.12,2.42.75.46.87.11,1.94-.76,2.4l-6.14,3.23,1.78,3.38,7.29-3.84c.87-.46,1.96-.12,2.42.75.46.87.11,1.94-.76,2.4l-9.04,4.76c-.99.52-2.18.15-2.7-.84Z"/>
      <path class="st1" d="M98.37,100.09l-10.73-10.91c-.24-.24-.45-.49-.58-.81-.42-1.04.09-2.16,1.12-2.58.97-.39,1.82-.08,2.41.55l8.61,9.24-.16-12.77c0-.7.42-1.54,1.31-1.9,1.01-.41,2.14.04,2.55,1.05.12.29.15.64.14.9l-.23,15.44c-.02,1.07-.5,1.91-1.51,2.31l-.24.1c-1.01.41-1.94.13-2.69-.63Z"/>
      <path class="st1" d="M107.44,80.67c-.34-1.06.23-2.18,1.29-2.52,1.06-.34,2.18.23,2.52,1.29l4.44,13.81c.34,1.06-.23,2.18-1.29,2.52-1.06.34-2.18-.23-2.52-1.29l-4.44-13.81Z"/>
      <path class="st1" d="M117.01,77.65c-.27-1.08.38-2.16,1.46-2.42l.4-.1c.93-.23,1.6.09,2.3.64l9.93,7.99-2.25-9.11c-.26-1.06.38-2.13,1.44-2.39,1.06-.26,2.13.38,2.39,1.44l3.48,14.06c.27,1.09-.38,2.16-1.46,2.42l-.13.03c-.93.23-1.6-.09-2.3-.64l-10.29-8.27,2.34,9.46c.26,1.06-.38,2.13-1.44,2.39s-2.13-.38-2.39-1.44l-3.48-14.06Z"/>
      <path class="st1" d="M138.99,79.87v-.05c-.81-5.11,2.51-9.92,7.96-10.77,2.72-.43,4.62-.09,6.41.78.43.22.95.69,1.07,1.46.17,1.08-.57,2.09-1.65,2.26-.56.09-.96-.06-1.27-.22-1.2-.6-2.43-.88-4.12-.62-2.88.45-4.76,3.35-4.28,6.41v.05c.52,3.29,3.16,5.35,6.35,4.85,1.44-.23,2.67-.79,3.55-1.66l-.4-2.57-2.67.42c-.95.15-1.84-.48-1.99-1.42-.15-.95.5-1.84,1.45-1.99l4.52-.71c1.1-.17,2.11.56,2.29,1.67l.68,4.37c.18,1.16-.13,2.02-.99,2.73-1.32,1.13-3.31,2.36-6.01,2.78-5.6.88-10.07-2.45-10.9-7.76Z"/>
      <path class="st1" d="M169.15,68.72c-.07-1.12.75-2.05,1.87-2.13,1.12-.07,2.05.75,2.13,1.87l.93,14.47c.07,1.12-.75,2.05-1.87,2.13-1.12.07-2.05-.75-2.12-1.87l-.93-14.47Z"/>
      <path class="st1" d="M179.01,68.25c-.01-1.12.86-2.01,1.98-2.02l5.1-.05c5.72-.06,9.71,3.83,9.76,8.95v.05c.05,5.12-3.86,9.14-9.58,9.2l-5.1.05c-1.12.01-2.01-.86-2.02-1.98l-.14-14.2ZM186.23,80.77c3.28-.03,5.46-2.27,5.43-5.49v-.05c-.03-3.22-2.27-5.46-5.54-5.43l-3.09.03.11,10.97,3.09-.03Z"/>
      <path class="st1" d="M200.87,68.31c.07-1.12,1.02-1.94,2.13-1.86l6.3.42c2.31.15,4.06.92,5.17,2.19.94,1.08,1.39,2.54,1.28,4.25v.05c-.19,2.85-1.74,4.52-4,5.28l2.55,3.56c.36.52.59.95.55,1.57-.07,1.12-1.06,1.78-2.02,1.72-.91-.06-1.48-.54-1.9-1.17l-3.56-5.19-3.19-.21-.26,3.97c-.07,1.12-1.01,1.94-2.13,1.86s-1.94-1.01-1.86-2.13l.95-14.32ZM208.45,75.67c1.95.13,3.13-.83,3.23-2.36v-.05c.12-1.71-1.02-2.67-2.96-2.8l-3.97-.26-.35,5.21,4.05.27Z"/>
      <path class="st1" d="M219.16,83.95l1.96-14.06c.15-1.11,1.15-1.86,2.26-1.71l9.99,1.39c.98.14,1.67,1.05,1.53,2.02-.14.98-1.04,1.64-2.02,1.5l-8.04-1.12-.51,3.66,6.88.96c.98.14,1.67,1.05,1.53,2.02-.14.98-1.04,1.64-2.02,1.5l-6.88-.96-.53,3.79,8.17,1.14c.98.14,1.67,1.05,1.53,2.02-.14.98-1.04,1.64-2.02,1.5l-10.12-1.41c-1.11-.15-1.86-1.15-1.71-2.26Z"/>
      <path class="st1" d="M243.63,75.25l-3.76-.8c-.99-.21-1.63-1.2-1.42-2.19.21-.99,1.2-1.63,2.19-1.42l11.44,2.44c.99.21,1.63,1.2,1.42,2.19-.21.99-1.2,1.63-2.19,1.42l-3.76-.8-2.65,12.38c-.23,1.09-1.28,1.77-2.38,1.54-1.09-.23-1.77-1.28-1.54-2.38l2.65-12.38Z"/>
      <path class="st1" d="M261.35,79.57l-3.69-1.09c-.97-.29-1.54-1.32-1.25-2.29s1.32-1.54,2.29-1.25l11.23,3.3c.97.29,1.54,1.32,1.25,2.29-.29.97-1.32,1.54-2.29,1.25l-3.69-1.09-3.57,12.15c-.32,1.07-1.41,1.67-2.49,1.36-1.07-.32-1.67-1.41-1.36-2.49l3.57-12.15Z"/>
      <path class="st1" d="M269.58,95.26c-.3-.45-.39-1.1-.16-1.68.37-.97,1.44-1.42,2.41-1.05.49.19.76.49.94.75.92,1.44,2.11,2.56,3.75,3.2,1.53.59,2.68.33,3.07-.66l.02-.05c.36-.95-.03-1.66-2.59-3.47-3.09-2.19-4.93-3.98-3.63-7.35l.02-.05c1.18-3.08,4.44-4.17,7.91-2.83,2.06.79,3.65,2.02,4.81,3.57.32.4.54,1.07.26,1.8-.37.97-1.44,1.42-2.41,1.05-.36-.14-.62-.35-.84-.63-.96-1.2-1.96-2.06-3.13-2.51-1.43-.55-2.44-.18-2.75.64l-.02.05c-.43,1.12.16,1.76,2.81,3.64,3.1,2.22,4.57,4.21,3.43,7.17l-.02.05c-1.3,3.37-4.59,4.28-8.26,2.87-2.23-.86-4.23-2.4-5.6-4.49Z"/>
      <path class="st1" d="M292.14,88.76c.49-1,1.68-1.41,2.68-.91s1.41,1.68.91,2.68l-5.62,11.41,6.65,3.27c.91.45,1.28,1.53.83,2.44-.45.91-1.53,1.28-2.44.83l-8.45-4.16c-1-.49-1.41-1.68-.91-2.68l6.34-12.88Z"/>
      <path class="st1" d="M299.99,108.02l13.1-8.59c.91-.59,1.91-.66,2.83-.06l.2.13c.92.59,1.25,1.52,1.08,2.59l-2.44,15.47c-.05.31-.12.57-.26.79-.58.9-1.74,1.16-2.64.59-.79-.51-1.01-1.3-.87-2.2l.52-3.06-6.73-4.34-2.69,1.82c-.71.47-1.53.5-2.23.05-.87-.56-1.1-1.7-.54-2.57.16-.24.4-.42.66-.59ZM312.18,109.88l1.14-6.41-5.38,3.68,4.24,2.74Z"/>
      <path class="st1" d="M320.92,114.05l.04-.04c3.44-3.87,9.27-4.36,13.39-.7,2.06,1.83,3.01,3.51,3.47,5.45.1.47.07,1.17-.45,1.76-.73.82-1.97.89-2.79.16-.43-.38-.56-.78-.64-1.12-.3-1.31-.86-2.44-2.15-3.58-2.18-1.93-5.62-1.55-7.67.77l-.03.04c-2.21,2.49-2.12,5.84.29,7.98,1.09.97,2.3,1.56,3.54,1.69l1.73-1.94-2.02-1.8c-.72-.64-.8-1.72-.16-2.44.64-.72,1.74-.78,2.46-.15l3.42,3.04c.84.74.91,1.99.17,2.83l-2.94,3.3c-.78.88-1.64,1.18-2.74.97-1.71-.3-3.93-1.06-5.97-2.87-4.24-3.77-4.51-9.33-.94-13.35Z"/>
    </g>
  </g>
  <g>
    <path class="st0" d="M48.23,85.22l-25.15-36.1c-.47-.68-1.4-.85-2.09-.38-1.69,1.17-3.22,2.26-4.69,3.33-5.31,3.88-10.49,8.02-15.41,12.32-.58.5-.68,1.36-.24,1.99l25.36,36.38c.25.36.64.59,1.07.63.05,0,.11,0,.16,0,.38,0,.74-.14,1.02-.4l.4-.37c4.76-4.39,9.93-8.64,15.36-12.61,1.26-.92,2.54-1.83,3.83-2.72.33-.23.55-.57.62-.97.07-.39-.02-.8-.25-1.12Z"/>
    <path class="st0" d="M47.33,284c-1.11-.78-2.22-1.57-3.31-2.36l-.09-.07c-1.42-1.04-2.83-2.1-4.3-3.25-.25-.2-.5-.4-.75-.6l-.51-.41c-1.02-.81-2.04-1.63-3.03-2.45-.3-.25-.6-.51-.9-.76l-.39-.33c-.97-.83-1.94-1.66-2.88-2.5-.39-.34-.77-.69-1.15-1.04-.8-.72-1.47-1.34-2.1-1.92-.32-.3-.75-.44-1.18-.39-.43.05-.82.28-1.07.63L.27,304.94c-.44.62-.33,1.48.24,1.98l.66.58c1.23,1.08,2.49,2.14,3.76,3.2.44.37.88.73,1.33,1.1,1.5,1.23,2.91,2.36,4.31,3.45l.79.61c1.82,1.41,3.44,2.62,4.95,3.73,1.37,1,2.76,1.99,4.16,2.97.25.18.55.27.86.27.09,0,.18,0,.26-.02.39-.07.74-.29.97-.62l25.15-36.11c.47-.68.31-1.61-.37-2.09Z"/>
    <path class="st1" d="M426.27,141.67c-10.81-34.09-34.28-65.07-67.88-89.6C312.41,18.49,251.67,0,187.35,0S66.32,17.31,20.99,48.74l-1.24.86,26.86,38.57,1.23-.85c37.51-25.99,87.05-40.31,139.5-40.31s105.33,15.28,143.33,43.02c25.06,18.3,42.51,40.8,50.48,65.07.9,2.72,1.7,5.62,2.4,8.61l.44,1.9,42.65-22.74-.38-1.19Z"/>
    <path class="st1" d="M383.81,206.99l-.45,1.85c-.64,2.63-1.39,5.25-2.22,7.78-7.98,24.25-25.43,46.74-50.47,65.02-32.05,23.41-72.88,37.9-118.07,41.91-1.66.15-3.33.28-5,.4-3.33.24-6.72.42-10.08.53-6.75.24-13.6.24-20.35,0-3.35-.12-6.75-.3-10.08-.53-1.67-.12-3.34-.25-5-.4-43.56-3.87-83.24-17.55-114.76-39.55l-1.23-.86-26.86,38.57,1.23.86c42.26,29.45,97.27,46.81,154.88,48.89,3.97.14,8,.22,12,.22s8.04-.07,12-.22c59.71-2.15,116.19-20.56,159.04-51.85,33.55-24.5,57.01-55.44,67.84-89.48l.38-1.21-42.81-21.92Z"/>
    <path class="st0" d="M426.48,142.33l-.75-2.37-42.43,22.63.26,1.12c1.71,7.34,2.58,14.78,2.58,22.13s-.94,15.42-2.78,23.01l-.28,1.15,42.61,21.82.63-1.96c4.52-14.32,6.82-29.12,6.82-44.01s-2.24-29.35-6.66-43.51Z"/>
    <rect class="st0" x="120.27" y="23.67" width="11.37" height="11.37" rx="1.42" ry="1.42" transform="translate(-3.3 25.05) rotate(-11.21)"/>
    <rect class="st0" x="233" y="21.98" width="11.37" height="11.37" rx="1.42" ry="1.42" transform="translate(168.42 257.44) rotate(-79.61)"/>
    <rect class="st0" x="338.51" y="64.75" width="11.37" height="11.37" rx="1.42" ry="1.42" transform="translate(77.83 299.52) rotate(-52.26)"/>
    <g>
      <rect class="st0" x="120.27" y="336.42" width="11.37" height="11.37" rx="1.42" ry="1.42" transform="translate(-234.11 399.15) rotate(-78.79)"/>
      <rect class="st0" x="233" y="338.11" width="11.37" height="11.37" rx="1.42" ry="1.42" transform="translate(-58.11 48.71) rotate(-10.39)"/>
      <rect class="st0" x="338.51" y="295.34" width="11.37" height="11.37" rx="1.42" ry="1.42" transform="translate(-112.24 273.63) rotate(-37.74)"/>
    </g>
  </g>
  <g>
    <path class="st0" d="M239.97,131.55c3.35-7.52-4.65-7.38-8.78-3.28-5.41,5.38-11.36,9.59-18.37,12.6-3.84,1.65-7.47,2.85-11.69,2.63-4.72-.24-8.78-2.31-13.24-3.61-4.14-1.21-11.45,5.98-9.08,10.03,6.64,11.33,23.39,8.79,33.48,4.8,1.54-.61,3.07-1.27,4.59-1.98-.99,6.2-1.66,12.23-1.64,18.65.02,7.11.56,14.21.7,21.32.22,11.65-.39,23.87-5.6,34.52-4.23,8.65-13.36,16.06-23.52,13.15-12.89-3.69-17.38-17.31-20.99-28.68-2.88-9.08-18.53,1.01-16.85,8.56,3.29,14.85,11.39,30.94,26.81,36.06,16.17,5.37,32.81-4.13,42.5-16.8,9.21-12.05,12.32-27.56,12.66-42.42.4-17.02-3.77-34.33-2.51-51.32,4.87-3.8,8.96-8.48,11.52-14.22Z"/>
    <path class="st0" d="M127,184.59c-8.17,8.63-21.37,10.48-31.98,5.29-10.31-5.04-16.55-17.71-14.69-28.98,1.97-11.94,15.08-21.74,26.88-22.27,6.55-.29,12.76,3.84,16.07,9.35,3.82,6.36,3.44,14.18,2.19,21.2-.42,2.36,2.08,2.75,3.73,2.34,2.61-.65,5-3.03,6.29-5.3,7.69-13.61,3.76-31.74-10.73-38.97-14.15-7.06-32.3,1.99-43.1,11.4-10.63,9.25-17.97,23.33-15.84,37.65,1.99,13.33,10.59,25.39,23.74,29.57,11.66,3.7,24.29,1.83,34.78-4.03,1.03,15.09,0,32.84-15.58,38.41-8.18,2.92-17.36,1.47-24.32-3.71-7.23-5.38-11.08-13.75-13.13-22.32-.9-3.74-6.26-2.64-8.51-1.41-3.52,1.92-6.13,5.35-6.31,9.43-.56,12.9,7.87,24.38,18.6,30.83,10.62,6.39,24.14,6.37,35.43,1.77,12.6-5.13,22.22-15.58,26.54-28.42,4.42-13.15,3.32-27.11,1.87-40.67-.7-6.58-8.72-4.53-11.93-1.14Z"/>
    <path class="st0" d="M303.22,129.24c-13.61-7.53-29.2-1.9-38.16,9.94-9.2,12.14-9.96,27.24-7.19,41.63,2.88,14.94,1.49,29.94-3.28,44.43-3.53,10.71-9.61,17.79-14.89,27.76-1.21,2.28-1.34,5.69,1.35,6.92,1.28.59,2.71.45,4.08-.05,2-.33,4.09-2.24,5.31-3.69.67-.64,1.34-1.28,1.98-1.96,2.62-2,6.6-3.54,9.42-4.45,5.56-1.81,11.23-2.21,17.02-1.48,9.62,1.21,16.21,7.2,21.96,14.56,5.74,7.35,20.96-6.72,14.77-14.27-8.76-10.68-20.49-15.37-34.19-15.18-5.63.08-11.3,1.1-16.6,3.03,1.18-2.38,2.25-4.82,3.17-7.29,5.79-15.54,9.4-34.03,6.36-50.48-1.44-7.79-4.01-15.44-3.06-23.46.67-5.61,2.82-12.99,8.68-15.12,7.61-2.77,16.4,2.48,21.22,8.06,6.5,7.53,7.36,16.69,9.85,25.85,1.66,6.12,11.34-3.38,11.51-6.84.69-14.37-6.46-30.8-19.31-37.91Z"/>
  </g>
</svg>